<svg width="998" height="368" viewBox="0 0 998 368" fill="none" xmlns="http://www.w3.org/2000/svg">
<path d="M291.5 252C288.54 252 287.06 250.52 287.06 247.56V176.4C287.06 173.44 288.54 171.96 291.5 171.96C293.46 171.96 295.08 172.92 296.36 174.84L325.22 218.46L323.3 218.76L352.28 174.84C353.48 172.92 355.26 171.96 357.62 171.96C360.06 171.96 361.28 173.44 361.28 176.4V247.56C361.28 250.52 359.82 252 356.9 252C353.94 252 352.46 250.52 352.46 247.56V185.22L355.16 186.12L329.12 224.94C327.84 226.82 326.06 227.76 323.78 227.76C322.1 227.76 320.62 226.82 319.34 224.94L293.3 186.12L295.88 186.9V247.56C295.88 250.52 294.42 252 291.5 252ZM389.82 252C386.86 252 385.38 250.52 385.38 247.56V196.92C385.38 194 386.86 192.54 389.82 192.54C392.74 192.54 394.2 194 394.2 196.92V203.16C396.48 199.68 399.48 197.04 403.2 195.24C406.96 193.44 411.32 192.54 416.28 192.54C419.24 192.54 420.72 194 420.72 196.92C420.72 199.88 419.24 201.36 416.28 201.36C409.28 201.36 403.92 202.76 400.2 205.56C396.48 208.32 394.48 212.1 394.2 216.9V247.56C394.2 250.52 392.74 252 389.82 252ZM423.337 252C420.417 252 418.957 250.54 418.957 247.62V244.86C418.957 242.02 420.417 240.6 423.337 240.6H425.977C428.777 240.6 430.177 242.02 430.177 244.86V247.62C430.177 250.54 428.777 252 425.977 252H423.337ZM480.379 263.58C477.459 263.58 475.999 261.74 475.999 258.06V252.3C475.999 249.5 476.639 247.46 477.919 246.18C479.239 244.9 481.199 244.22 483.799 244.14C484.759 242.22 485.759 239.36 486.799 235.56C487.879 231.76 488.939 227.38 489.979 222.42C491.019 217.46 491.939 212.24 492.739 206.76C493.579 201.24 494.239 195.76 494.719 190.32C495.239 184.88 495.479 179.82 495.439 175.14H535.279V244.26C537.679 244.38 539.479 245.08 540.679 246.36C541.879 247.64 542.479 249.62 542.479 252.3V258.06C542.479 261.74 540.999 263.58 538.039 263.58C535.119 263.58 533.659 261.74 533.659 258.06V252.54H484.819V258.06C484.819 261.74 483.339 263.58 480.379 263.58ZM493.459 243.72H526.459V183.96H504.859C504.779 187.68 504.479 191.78 503.959 196.26C503.479 200.7 502.839 205.26 502.039 209.94C501.279 214.58 500.419 219.06 499.459 223.38C498.499 227.7 497.499 231.64 496.459 235.2C495.459 238.72 494.459 241.56 493.459 243.72ZM555.455 252.54V196.14H594.515C600.835 196.14 605.855 197.54 609.575 200.34C613.335 203.1 615.215 207.04 615.215 212.16C615.215 215.04 614.695 217.42 613.655 219.3C612.615 221.14 611.115 222.62 609.155 223.74C613.195 226.74 615.215 230.9 615.215 236.22C615.215 239.74 614.355 242.72 612.635 245.16C610.955 247.56 608.555 249.4 605.435 250.68C602.355 251.92 598.715 252.54 594.515 252.54H555.455ZM564.275 243.72H593.675C602.155 243.72 606.395 241.58 606.395 237.3C606.395 233.94 605.435 231.52 603.515 230.04C601.635 228.56 598.515 227.82 594.155 227.82H564.275V243.72ZM564.275 219H594.155C598.955 219 602.215 218.5 603.935 217.5C605.655 216.5 606.515 214.44 606.515 211.32C606.515 207.08 602.235 204.96 593.675 204.96H564.275V219ZM658.587 252.54C651.427 252.54 645.687 251.88 641.367 250.56C637.047 249.24 633.907 247 631.947 243.84C630.027 240.64 629.067 236.26 629.067 230.7V217.92C629.067 212.4 630.027 208.06 631.947 204.9C633.907 201.7 637.047 199.44 641.367 198.12C645.687 196.8 651.427 196.14 658.587 196.14H662.067C669.227 196.14 674.967 196.82 679.287 198.18C683.607 199.5 686.727 201.76 688.647 204.96C690.567 208.12 691.527 212.44 691.527 217.92V223.86H637.887V230.46C637.887 234.22 638.407 237.06 639.447 238.98C640.487 240.86 642.487 242.12 645.447 242.76C648.447 243.4 652.827 243.72 658.587 243.72H676.467C678.547 243.72 679.947 243.32 680.667 242.52C681.427 241.68 681.807 240.18 681.807 238.02C681.807 236.22 682.207 234.82 683.007 233.82C683.807 232.82 684.887 232.32 686.247 232.32C687.647 232.36 688.727 232.9 689.487 233.94C690.247 234.94 690.627 236.38 690.627 238.26C690.627 241.34 690.187 243.96 689.307 246.12C688.427 248.24 687.007 249.84 685.047 250.92C683.087 252 680.507 252.54 677.307 252.54H658.587ZM637.887 215.04H682.647C682.327 211.04 680.967 208.4 678.567 207.12C677.127 206.32 675.007 205.76 672.207 205.44C669.447 205.12 666.067 204.96 662.067 204.96H658.587C654.387 204.96 650.907 205.12 648.147 205.44C645.387 205.76 643.307 206.3 641.907 207.06C639.467 208.34 638.127 211 637.887 215.04ZM710.593 274.38C707.713 274.38 706.273 272.54 706.273 268.86V200.52C706.273 197.04 707.773 195.3 710.773 195.3C712.333 195.3 713.433 195.8 714.073 196.8C714.713 197.76 715.033 199.42 715.033 201.78V206.52L713.473 204.42C715.913 201.54 719.013 199.44 722.773 198.12C726.533 196.8 730.893 196.14 735.853 196.14H739.333C746.493 196.14 752.213 196.82 756.493 198.18C760.813 199.5 763.933 201.76 765.853 204.96C767.773 208.12 768.733 212.44 768.733 217.92V230.7C768.733 236.22 767.773 240.58 765.853 243.78C763.933 246.94 760.833 249.2 756.553 250.56C752.313 251.88 746.653 252.54 739.573 252.54H715.093V268.86C715.093 272.54 713.593 274.38 710.593 274.38ZM715.093 243.72H739.573C745.253 243.72 749.553 243.4 752.473 242.76C755.393 242.12 757.353 240.86 758.353 238.98C759.393 237.06 759.913 234.22 759.913 230.46V218.22C759.913 214.38 759.373 211.52 758.293 209.64C757.253 207.72 755.253 206.46 752.293 205.86C749.333 205.26 745.013 204.96 739.333 204.96H735.853C728.813 204.96 723.593 206.56 720.193 209.76C716.793 212.92 715.093 217.72 715.093 224.16V243.72ZM788.405 253.38C787.085 253.38 786.025 252.92 785.225 252C784.465 251.08 784.085 249.88 784.085 248.4V200.28C784.085 198.72 784.485 197.5 785.285 196.62C786.125 195.74 787.245 195.3 788.645 195.3C789.925 195.3 790.945 195.76 791.705 196.68C792.505 197.56 792.905 198.76 792.905 200.28V219.84H804.845C805.845 219.84 806.965 219.18 808.205 217.86C809.445 216.5 811.045 214.32 813.005 211.32C814.525 209 816.285 206.6 818.285 204.12C820.285 201.64 822.885 199.52 826.085 197.76C829.245 196.04 832.725 195.18 836.525 195.18C838.285 195.18 839.685 195.56 840.725 196.32C841.765 197.08 842.285 198.16 842.285 199.56C842.285 201.12 841.765 202.26 840.725 202.98C839.685 203.66 838.325 204 836.645 204C834.325 204.04 832.165 204.88 830.165 206.52C828.205 208.16 825.985 210.78 823.505 214.38C822.545 215.82 821.685 217.08 820.925 218.16C820.165 219.2 819.465 220.12 818.825 220.92C818.185 221.72 817.525 222.46 816.845 223.14C820.285 224.62 823.205 226.58 825.605 229.02C828.045 231.42 829.725 233.9 830.645 236.46C831.725 239.14 832.725 241.16 833.645 242.52C834.565 243.84 835.565 244.52 836.645 244.56C838.285 244.56 839.625 244.94 840.665 245.7C841.745 246.46 842.285 247.54 842.285 248.94C842.285 251.9 840.385 253.38 836.585 253.38C833.785 253.38 831.405 252.84 829.445 251.76C827.485 250.68 825.905 249.18 824.705 247.26C823.665 245.74 822.765 244.18 822.005 242.58C821.245 240.94 820.305 239.3 819.185 237.66C818.065 235.98 816.485 234.36 814.445 232.8C811.125 230.04 805.745 228.66 798.305 228.66H792.905V248.52C792.905 250 792.505 251.18 791.705 252.06C790.905 252.94 789.805 253.38 788.405 253.38ZM909.223 253.38C906.303 253.38 904.843 251.5 904.843 247.74V208.56L863.623 252.54H855.103V200.64C855.103 197.08 856.563 195.3 859.483 195.3C862.443 195.3 863.923 197.16 863.923 200.88V240.54L905.443 196.14H913.663V248.04C913.663 251.6 912.183 253.38 909.223 253.38ZM935.067 253.38C932.147 253.38 930.687 251.64 930.687 248.16V200.64C930.687 197.08 932.067 195.3 934.827 195.3C937.947 195.3 939.507 197.08 939.507 200.64V218.28H980.427V200.64C980.427 197.08 981.887 195.3 984.807 195.3C987.767 195.3 989.247 197.08 989.247 200.64V248.16C989.247 251.64 987.767 253.38 984.807 253.38C981.887 253.38 980.427 251.64 980.427 248.16V227.1H939.507V248.16C939.507 251.64 938.027 253.38 935.067 253.38Z" fill="black"/>
<path d="M285.901 336.421C285.043 336.421 284.614 335.852 284.614 334.713V314.517C284.614 313.345 285.01 312.76 285.802 312.76C286.379 312.76 286.882 313.073 287.311 313.7L296.543 327.461L305.824 313.7C306.237 313.073 306.715 312.76 307.26 312.76C308.101 312.76 308.522 313.345 308.522 314.517V334.713C308.522 335.852 308.085 336.421 307.21 336.421C306.352 336.421 305.923 335.835 305.923 334.663V317.734L297.409 330.53C297.244 330.794 296.972 330.926 296.593 330.926C296.428 330.926 296.263 330.893 296.098 330.827C295.933 330.761 295.801 330.662 295.702 330.53L287.212 317.734V334.663C287.212 335.835 286.775 336.421 285.901 336.421ZM334.53 336.421C334.101 336.421 333.804 336.264 333.639 335.95C333.474 335.637 333.375 335.101 333.342 334.342C333.325 333.566 333.309 332.494 333.292 331.124L333.688 332.065C332.764 333.451 331.576 334.465 330.124 335.109C328.672 335.752 326.948 336.074 324.951 336.074H320.348C318.78 336.074 317.502 335.53 316.512 334.441C315.538 333.352 315.051 331.669 315.051 329.392C315.051 327.577 315.357 326.141 315.967 325.085C316.578 324.029 317.403 323.237 318.442 322.709C319.498 322.181 320.67 321.835 321.957 321.67C323.26 321.505 324.597 321.422 325.966 321.422H334.406L333.243 322.561V318.551C333.243 317.495 333.045 316.761 332.649 316.348C332.269 315.919 331.56 315.705 330.52 315.705H323.541C322.138 315.705 321 315.812 320.125 316.027C319.267 316.225 318.64 316.538 318.244 316.967C317.848 317.396 317.65 317.949 317.65 318.625C317.634 319.153 317.543 319.558 317.378 319.838C317.229 320.119 316.883 320.259 316.338 320.259C315.48 320.259 315.051 319.64 315.051 318.403C315.051 316.637 315.777 315.317 317.229 314.443C318.698 313.552 320.686 313.106 323.194 313.106H330.867C332.764 313.106 334.068 313.568 334.777 314.492C335.487 315.4 335.841 317.033 335.841 319.393V334.713C335.841 335.852 335.404 336.421 334.53 336.421ZM320.397 333.525H324.951C327.987 333.525 330.141 332.667 331.411 330.951C332.698 329.218 333.309 326.661 333.243 323.279L334.01 323.971H325.966C324.135 323.971 322.6 324.095 321.363 324.343C320.125 324.574 319.193 325.06 318.566 325.803C317.955 326.545 317.65 327.667 317.65 329.169C317.65 330.72 317.922 331.834 318.467 332.51C319.028 333.187 319.671 333.525 320.397 333.525ZM360.261 315.705H348.158C347.119 315.705 346.401 315.919 346.005 316.348C345.626 316.777 345.436 317.536 345.436 318.625V334.713C345.436 335.852 345.007 336.421 344.149 336.421C343.274 336.421 342.837 335.852 342.837 334.713V319.393C342.837 317.033 343.192 315.4 343.901 314.492C344.627 313.568 345.931 313.106 347.812 313.106H360.261C361.416 313.106 361.994 313.535 361.994 314.393C361.994 315.268 361.416 315.705 360.261 315.705ZM385.141 336.421C384.712 336.421 384.415 336.264 384.25 335.95C384.085 335.637 383.986 335.101 383.953 334.342C383.937 333.566 383.92 332.494 383.904 331.124L384.3 332.065C383.376 333.451 382.188 334.465 380.736 335.109C379.284 335.752 377.56 336.074 375.563 336.074H370.96C369.392 336.074 368.113 335.53 367.123 334.441C366.15 333.352 365.663 331.669 365.663 329.392C365.663 327.577 365.968 326.141 366.579 325.085C367.189 324.029 368.014 323.237 369.054 322.709C370.11 322.181 371.281 321.835 372.568 321.67C373.872 321.505 375.208 321.422 376.578 321.422H385.018L383.854 322.561V318.551C383.854 317.495 383.656 316.761 383.26 316.348C382.881 315.919 382.171 315.705 381.132 315.705H374.152C372.75 315.705 371.611 315.812 370.737 316.027C369.879 316.225 369.252 316.538 368.856 316.967C368.46 317.396 368.262 317.949 368.262 318.625C368.245 319.153 368.155 319.558 367.99 319.838C367.841 320.119 367.495 320.259 366.95 320.259C366.092 320.259 365.663 319.64 365.663 318.403C365.663 316.637 366.389 315.317 367.841 314.443C369.31 313.552 371.298 313.106 373.806 313.106H381.478C383.376 313.106 384.679 313.568 385.389 314.492C386.098 315.4 386.453 317.033 386.453 319.393V334.713C386.453 335.852 386.016 336.421 385.141 336.421ZM371.009 333.525H375.563C378.599 333.525 380.752 332.667 382.023 330.951C383.31 329.218 383.92 326.661 383.854 323.279L384.622 323.971H376.578C374.746 323.971 373.212 324.095 371.974 324.343C370.737 324.574 369.805 325.06 369.178 325.803C368.567 326.545 368.262 327.667 368.262 329.169C368.262 330.72 368.534 331.834 369.079 332.51C369.64 333.187 370.283 333.525 371.009 333.525ZM397.706 336.074C395.825 336.074 394.53 335.604 393.82 334.663C393.111 333.723 392.756 332.056 392.756 329.664C392.756 328.509 393.185 327.931 394.043 327.931C394.917 327.931 395.355 328.509 395.355 329.664V330.555C395.355 331.644 395.544 332.403 395.924 332.832C396.32 333.261 397.029 333.475 398.052 333.475H407.111C411.054 333.475 413.026 332.444 413.026 330.382C413.026 328.715 412.564 327.486 411.64 326.694C410.716 325.902 409.272 325.506 407.309 325.506H403.052C401.864 325.506 401.27 325.11 401.27 324.318C401.27 323.377 401.864 322.907 403.052 322.907H407.309C408.662 322.907 409.759 322.792 410.601 322.561C411.442 322.33 412.061 321.917 412.457 321.323C412.869 320.713 413.076 319.863 413.076 318.774C413.076 316.728 411.087 315.705 407.111 315.705H398.052C397.029 315.705 396.32 315.919 395.924 316.348C395.544 316.761 395.355 317.512 395.355 318.601V319.492C395.355 320.663 394.917 321.249 394.043 321.249C393.185 321.249 392.756 320.663 392.756 319.492C392.756 317.099 393.111 315.441 393.82 314.517C394.53 313.576 395.825 313.106 397.706 313.106H407.457C409.866 313.106 411.83 313.618 413.348 314.641C414.866 315.664 415.625 317.248 415.625 319.393C415.625 320.795 415.361 321.851 414.833 322.561C414.305 323.27 413.571 323.839 412.63 324.268C414.627 325.506 415.625 327.271 415.625 329.565C415.625 331.842 414.866 333.5 413.348 334.54C411.83 335.563 409.866 336.074 407.457 336.074H397.706ZM443.397 336.421C442.539 336.421 442.11 335.819 442.11 334.614V316.72L425.107 336.074H422.335V314.517C422.335 313.345 422.764 312.76 423.622 312.76C424.496 312.76 424.934 313.354 424.934 314.542V332.634L442.061 313.106H444.709V334.663C444.709 335.835 444.272 336.421 443.397 336.421ZM453.205 336.421C452.347 336.421 451.918 335.852 451.918 334.713V314.517C451.918 313.345 452.314 312.76 453.106 312.76C454.046 312.76 454.516 313.345 454.516 314.517V322.61H471.693V314.517C471.693 313.345 472.122 312.76 472.98 312.76C473.854 312.76 474.292 313.345 474.292 314.517V334.713C474.292 335.852 473.854 336.421 472.98 336.421C472.122 336.421 471.693 335.852 471.693 334.713V325.209H454.516V334.713C454.516 335.852 454.079 336.421 453.205 336.421ZM492.118 340.628C491.244 340.628 490.807 340.043 490.807 338.871V336.371C490.807 334.424 491.681 333.459 493.43 333.475H494.94L493.455 334.094C497.002 328.418 498.776 321.422 498.776 313.106H511.795V333.475H513.923C515.606 333.475 516.448 334.441 516.448 336.371V338.871C516.448 340.043 516.019 340.628 515.161 340.628C514.286 340.628 513.849 340.043 513.849 338.871V336.074H493.405V338.871C493.405 340.043 492.976 340.628 492.118 340.628ZM496.722 333.475H509.171V315.705H501.424C501.375 322.222 499.807 328.146 496.722 333.475ZM521.287 336.074V313.106H536.285C538.546 313.106 540.418 313.626 541.903 314.665C543.405 315.705 544.156 317.281 544.156 319.393C544.156 320.795 543.892 321.851 543.364 322.561C542.836 323.27 542.101 323.839 541.161 324.268C543.157 325.506 544.156 327.263 544.156 329.54C544.156 331.042 543.809 332.279 543.116 333.253C542.44 334.21 541.507 334.919 540.319 335.381C539.131 335.843 537.787 336.074 536.285 336.074H521.287ZM523.885 333.475H535.939C539.684 333.475 541.557 332.419 541.557 330.307C541.557 328.674 541.111 327.469 540.22 326.694C539.346 325.902 537.985 325.506 536.137 325.506H523.885V333.475ZM523.885 322.907H536.137C538.051 322.907 539.437 322.635 540.295 322.09C541.169 321.546 541.606 320.465 541.606 318.848C541.606 316.753 539.717 315.705 535.939 315.705H523.885V322.907ZM561.117 336.074C558.576 336.074 556.505 335.827 554.905 335.332C553.304 334.82 552.116 333.929 551.341 332.659C550.582 331.388 550.202 329.598 550.202 327.288V321.868C550.202 319.574 550.582 317.792 551.341 316.522C552.116 315.251 553.304 314.368 554.905 313.873C556.505 313.362 558.576 313.106 561.117 313.106H562.553C565.077 313.106 567.14 313.362 568.74 313.873C570.357 314.368 571.545 315.251 572.304 316.522C573.063 317.792 573.443 319.574 573.443 321.868V323.872H552.801V327.263C552.801 329.012 553.04 330.332 553.519 331.223C553.997 332.114 554.839 332.716 556.043 333.03C557.264 333.327 558.956 333.475 561.117 333.475H567.998C569.037 333.475 569.747 333.253 570.126 332.807C570.522 332.362 570.72 331.627 570.72 330.604C570.72 329.994 570.844 329.54 571.091 329.243C571.355 328.93 571.661 328.773 572.007 328.773C572.387 328.773 572.7 328.921 572.948 329.218C573.195 329.515 573.319 329.936 573.319 330.481C573.319 331.57 573.187 332.543 572.923 333.401C572.659 334.243 572.172 334.903 571.463 335.381C570.753 335.843 569.714 336.074 568.344 336.074H561.117ZM552.801 321.274H570.819C570.786 319.195 570.283 317.767 569.309 316.992C568.699 316.48 567.833 316.142 566.711 315.977C565.605 315.796 564.219 315.705 562.553 315.705H561.117C559.467 315.705 558.098 315.787 557.009 315.952C555.92 316.101 555.062 316.398 554.435 316.843C553.379 317.602 552.834 319.079 552.801 321.274ZM581.209 345.083C580.367 345.083 579.946 344.498 579.946 343.326V314.467C579.946 313.329 580.384 312.76 581.258 312.76C581.704 312.76 582.025 312.908 582.223 313.205C582.438 313.502 582.545 313.981 582.545 314.641V317.536L582.1 316.942C583.04 315.639 584.245 314.674 585.713 314.047C587.182 313.42 588.906 313.106 590.886 313.106H592.321C594.846 313.106 596.908 313.362 598.509 313.873C600.109 314.368 601.289 315.251 602.048 316.522C602.807 317.792 603.187 319.574 603.187 321.868V327.288C603.187 329.598 602.807 331.388 602.048 332.659C601.289 333.929 600.109 334.82 598.509 335.332C596.908 335.827 594.854 336.074 592.346 336.074H582.545V343.326C582.545 344.498 582.1 345.083 581.209 345.083ZM582.545 333.475H592.346C594.508 333.475 596.182 333.327 597.37 333.03C598.558 332.716 599.392 332.114 599.87 331.223C600.349 330.316 600.588 328.996 600.588 327.263V321.917C600.588 320.086 600.332 318.733 599.821 317.858C599.309 316.967 598.451 316.39 597.247 316.126C596.042 315.845 594.4 315.705 592.321 315.705H590.886C588.147 315.705 586.068 316.456 584.649 317.957C583.246 319.459 582.545 321.645 582.545 324.516V333.475ZM620.092 336.074C617.551 336.074 615.48 335.827 613.879 335.332C612.279 334.82 611.091 333.929 610.315 332.659C609.556 331.388 609.177 329.598 609.177 327.288V321.868C609.177 319.574 609.556 317.792 610.315 316.522C611.091 315.251 612.279 314.368 613.879 313.873C615.48 313.362 617.551 313.106 620.092 313.106H621.527C624.052 313.106 626.114 313.362 627.715 313.873C629.332 314.368 630.52 315.251 631.279 316.522C632.038 317.792 632.417 319.574 632.417 321.868V323.872H611.776V327.263C611.776 329.012 612.015 330.332 612.493 331.223C612.972 332.114 613.813 332.716 615.018 333.03C616.239 333.327 617.93 333.475 620.092 333.475H626.972C628.012 333.475 628.721 333.253 629.101 332.807C629.497 332.362 629.695 331.627 629.695 330.604C629.695 329.994 629.818 329.54 630.066 329.243C630.33 328.93 630.635 328.773 630.982 328.773C631.361 328.773 631.675 328.921 631.922 329.218C632.17 329.515 632.293 329.936 632.293 330.481C632.293 331.57 632.161 332.543 631.897 333.401C631.633 334.243 631.147 334.903 630.437 335.381C629.728 335.843 628.688 336.074 627.319 336.074H620.092ZM611.776 321.274H629.794C629.761 319.195 629.257 317.767 628.284 316.992C627.673 316.48 626.807 316.142 625.685 315.977C624.58 315.796 623.194 315.705 621.527 315.705H620.092C618.442 315.705 617.072 315.787 615.983 315.952C614.894 316.101 614.036 316.398 613.409 316.843C612.353 317.602 611.809 319.079 611.776 321.274ZM660.008 336.421C659.15 336.421 658.721 335.819 658.721 334.614V316.72L641.718 336.074H638.946V314.517C638.946 313.345 639.375 312.76 640.233 312.76C641.107 312.76 641.544 313.354 641.544 314.542V332.634L658.671 313.106H661.32V334.663C661.32 335.835 660.882 336.421 660.008 336.421ZM647.435 311.275C645.752 311.275 644.58 310.854 643.92 310.012C643.26 309.154 642.93 307.645 642.93 305.483V304.122H645.529V306.275C645.529 307.216 645.678 307.851 645.975 308.181C646.288 308.511 646.907 308.676 647.831 308.676H652.88C653.82 308.676 654.431 308.511 654.711 308.181C655.008 307.851 655.157 307.216 655.157 306.275V304.122H657.756V305.483C657.756 307.661 657.434 309.171 656.79 310.012C656.163 310.854 654.975 311.275 653.226 311.275H647.435ZM702.064 336.421C701.206 336.421 700.777 335.819 700.777 334.614V316.72L683.773 336.074H681.001V314.517C681.001 313.345 681.43 312.76 682.288 312.76C683.163 312.76 683.6 313.354 683.6 314.542V332.634L700.727 313.106H703.375V334.663C703.375 335.835 702.938 336.421 702.064 336.421ZM738.303 345.083C737.445 345.083 737.016 344.498 737.016 343.326V332.906C736.076 334.045 735.127 334.861 734.17 335.356C733.229 335.835 732.033 336.074 730.581 336.074C725.07 336.074 722.315 332.815 722.315 326.298V322.858C722.315 316.357 725.07 313.106 730.581 313.106C732.033 313.106 733.229 313.354 734.17 313.849C735.127 314.327 736.076 315.136 737.016 316.274V305.83C737.016 304.675 737.445 304.097 738.303 304.097C739.178 304.097 739.615 304.675 739.615 305.83V316.274C740.555 315.136 741.504 314.327 742.461 313.849C743.418 313.354 744.606 313.106 746.025 313.106C751.536 313.106 754.292 316.357 754.292 322.858V326.298C754.292 329.482 753.64 331.908 752.336 333.574C751.049 335.241 748.946 336.074 746.025 336.074C744.606 336.074 743.418 335.835 742.461 335.356C741.504 334.861 740.555 334.045 739.615 332.906V343.326C739.615 344.498 739.178 345.083 738.303 345.083ZM730.853 333.426C732.371 333.442 733.576 333.03 734.467 332.188C735.374 331.33 736.026 330.225 736.422 328.872C736.818 327.519 737.016 326.083 737.016 324.565C737.016 322.915 736.793 321.422 736.348 320.086C735.919 318.749 735.226 317.685 734.269 316.893C733.328 316.101 732.091 315.705 730.556 315.705C729.203 315.705 728.139 315.919 727.364 316.348C726.605 316.761 726.052 317.314 725.705 318.007C725.359 318.7 725.136 319.467 725.037 320.308C724.955 321.15 724.913 322 724.913 322.858V326.298C724.913 328.789 725.326 330.596 726.151 331.718C726.992 332.84 728.56 333.409 730.853 333.426ZM746.075 333.475C747.609 333.475 748.781 333.211 749.589 332.683C750.398 332.155 750.95 331.363 751.247 330.307C751.544 329.235 751.693 327.898 751.693 326.298V322.858C751.693 320.383 751.289 318.568 750.48 317.413C749.672 316.241 748.121 315.655 745.827 315.655C744.375 315.655 743.187 316.06 742.263 316.868C741.356 317.677 740.687 318.757 740.258 320.11C739.829 321.463 739.615 322.948 739.615 324.565C739.615 326.232 739.829 327.742 740.258 329.095C740.704 330.431 741.397 331.495 742.337 332.287C743.294 333.079 744.54 333.475 746.075 333.475ZM765.413 346.222C764.109 346.222 763.103 345.974 762.393 345.479C761.7 345.001 761.222 344.374 760.958 343.598C760.71 342.823 760.587 341.998 760.587 341.123C760.587 340.348 760.694 339.787 760.908 339.44C761.123 339.094 761.453 338.921 761.898 338.921C762.426 338.921 762.773 339.11 762.938 339.49C763.103 339.886 763.185 340.29 763.185 340.703C763.218 341.577 763.383 342.278 763.68 342.806C763.994 343.351 764.736 343.623 765.908 343.623H778.976C779.9 343.623 780.502 343.458 780.783 343.128C781.08 342.798 781.228 342.138 781.228 341.148V332.857C779.38 335.002 776.616 336.074 772.937 336.074H771.501C768.977 336.074 766.906 335.827 765.289 335.332C763.689 334.82 762.501 333.929 761.725 332.659C760.966 331.388 760.587 329.598 760.587 327.288V314.542C760.587 313.354 761.024 312.76 761.898 312.76C762.756 312.76 763.185 313.354 763.185 314.542V327.263C763.185 329.012 763.425 330.332 763.903 331.223C764.398 332.114 765.248 332.716 766.452 333.03C767.657 333.327 769.34 333.475 771.501 333.475H772.937C775.626 333.475 777.681 332.725 779.1 331.223C780.519 329.722 781.228 327.535 781.228 324.664V314.542C781.228 313.354 781.665 312.76 782.54 312.76C783.398 312.76 783.827 313.354 783.827 314.542V340.356C783.827 342.534 783.505 344.052 782.862 344.91C782.235 345.785 781.055 346.222 779.322 346.222H765.413ZM792.357 345.083C791.516 345.083 791.095 344.498 791.095 343.326V314.467C791.095 313.329 791.532 312.76 792.407 312.76C792.852 312.76 793.174 312.908 793.372 313.205C793.586 313.502 793.694 313.981 793.694 314.641V317.536L793.248 316.942C794.189 315.639 795.393 314.674 796.862 314.047C798.33 313.42 800.054 313.106 802.034 313.106H803.47C805.994 313.106 808.057 313.362 809.657 313.873C811.258 314.368 812.438 315.251 813.197 316.522C813.956 317.792 814.335 319.574 814.335 321.868V327.288C814.335 329.598 813.956 331.388 813.197 332.659C812.438 333.929 811.258 334.82 809.657 335.332C808.057 335.827 806.003 336.074 803.495 336.074H793.694V343.326C793.694 344.498 793.248 345.083 792.357 345.083ZM793.694 333.475H803.495C805.656 333.475 807.331 333.327 808.519 333.03C809.707 332.716 810.54 332.114 811.019 331.223C811.497 330.316 811.736 328.996 811.736 327.263V321.917C811.736 320.086 811.481 318.733 810.969 317.858C810.458 316.967 809.6 316.39 808.395 316.126C807.191 315.845 805.549 315.705 803.47 315.705H802.034C799.295 315.705 797.216 316.456 795.797 317.957C794.395 319.459 793.694 321.645 793.694 324.516V333.475ZM822.231 336.421C821.373 336.421 820.944 335.852 820.944 334.713V314.517C820.944 313.345 821.34 312.76 822.132 312.76C823.073 312.76 823.543 313.345 823.543 314.517V322.61H840.719V314.517C840.719 313.345 841.148 312.76 842.006 312.76C842.881 312.76 843.318 313.345 843.318 314.517V334.713C843.318 335.852 842.881 336.421 842.006 336.421C841.148 336.421 840.719 335.852 840.719 334.713V325.209H823.543V334.713C823.543 335.852 823.106 336.421 822.231 336.421ZM871.64 336.421C870.782 336.421 870.353 335.819 870.353 334.614V316.72L853.35 336.074H850.578V314.517C850.578 313.345 851.007 312.76 851.865 312.76C852.739 312.76 853.176 313.354 853.176 314.542V332.634L870.303 313.106H872.952V334.663C872.952 335.835 872.514 336.421 871.64 336.421ZM887.808 336.421C886.901 336.421 886.447 335.901 886.447 334.861V315.705H878.923C877.817 315.705 877.265 315.268 877.265 314.393C877.265 313.535 877.817 313.106 878.923 313.106H896.669C897.758 313.106 898.302 313.535 898.302 314.393C898.302 315.268 897.758 315.705 896.669 315.705H889.169V334.861C889.169 335.356 889.046 335.736 888.798 336C888.567 336.281 888.237 336.421 887.808 336.421ZM907.242 346.222C905.938 346.222 904.932 345.974 904.222 345.479C903.529 345.001 903.051 344.374 902.787 343.598C902.539 342.823 902.416 341.998 902.416 341.123C902.416 340.348 902.523 339.787 902.737 339.44C902.952 339.094 903.282 338.921 903.727 338.921C904.255 338.921 904.602 339.11 904.767 339.49C904.932 339.886 905.014 340.29 905.014 340.703C905.047 341.577 905.212 342.278 905.509 342.806C905.823 343.351 906.565 343.623 907.737 343.623H920.805C921.729 343.623 922.331 343.458 922.612 343.128C922.909 342.798 923.057 342.138 923.057 341.148V332.857C921.209 335.002 918.445 336.074 914.766 336.074H913.33C910.806 336.074 908.735 335.827 907.118 335.332C905.518 334.82 904.33 333.929 903.554 332.659C902.795 331.388 902.416 329.598 902.416 327.288V314.542C902.416 313.354 902.853 312.76 903.727 312.76C904.585 312.76 905.014 313.354 905.014 314.542V327.263C905.014 329.012 905.254 330.332 905.732 331.223C906.227 332.114 907.077 332.716 908.281 333.03C909.486 333.327 911.169 333.475 913.33 333.475H914.766C917.455 333.475 919.51 332.725 920.929 331.223C922.348 329.722 923.057 327.535 923.057 324.664V314.542C923.057 313.354 923.494 312.76 924.369 312.76C925.227 312.76 925.656 313.354 925.656 314.542V340.356C925.656 342.534 925.334 344.052 924.691 344.91C924.064 345.785 922.884 346.222 921.151 346.222H907.242ZM934.186 345.083C933.345 345.083 932.924 344.498 932.924 343.326V314.467C932.924 313.329 933.361 312.76 934.236 312.76C934.681 312.76 935.003 312.908 935.201 313.205C935.415 313.502 935.523 313.981 935.523 314.641V317.536L935.077 316.942C936.018 315.639 937.222 314.674 938.691 314.047C940.159 313.42 941.883 313.106 943.863 313.106H945.299C947.823 313.106 949.886 313.362 951.486 313.873C953.087 314.368 954.267 315.251 955.026 316.522C955.785 317.792 956.164 319.574 956.164 321.868V327.288C956.164 329.598 955.785 331.388 955.026 332.659C954.267 333.929 953.087 334.82 951.486 335.332C949.886 335.827 947.832 336.074 945.324 336.074H935.523V343.326C935.523 344.498 935.077 345.083 934.186 345.083ZM935.523 333.475H945.324C947.485 333.475 949.16 333.327 950.348 333.03C951.536 332.716 952.369 332.114 952.848 331.223C953.326 330.316 953.565 328.996 953.565 327.263V321.917C953.565 320.086 953.31 318.733 952.798 317.858C952.287 316.967 951.429 316.39 950.224 316.126C949.02 315.845 947.378 315.705 945.299 315.705H943.863C941.124 315.705 939.045 316.456 937.626 317.957C936.224 319.459 935.523 321.645 935.523 324.516V333.475ZM962.823 336.074V314.517C962.823 313.345 963.252 312.76 964.11 312.76C964.984 312.76 965.421 313.345 965.421 314.517V322.907H975.94C977.458 322.907 978.803 323.138 979.974 323.6C981.162 324.046 982.095 324.755 982.771 325.729C983.464 326.686 983.811 327.931 983.811 329.466C983.811 331.017 983.464 332.279 982.771 333.253C982.095 334.21 981.162 334.919 979.974 335.381C978.803 335.827 977.458 336.058 975.94 336.074H962.823ZM965.421 333.475H975.569C977.384 333.475 978.778 333.162 979.752 332.535C980.742 331.908 981.237 330.893 981.237 329.491C981.237 328.319 980.964 327.453 980.42 326.892C979.875 326.314 979.166 325.943 978.291 325.778C977.433 325.597 976.526 325.506 975.569 325.506H965.421V333.475ZM987.845 336.594C986.987 336.594 986.558 336.066 986.558 335.01V314.22C986.558 313.675 986.665 313.263 986.88 312.982C987.111 312.702 987.432 312.562 987.845 312.562C988.274 312.562 988.596 312.702 988.81 312.982C989.041 313.263 989.157 313.675 989.157 314.22V335.01C989.157 336.066 988.719 336.594 987.845 336.594Z" fill="#787470"/>
<mask id="path-3-outside-1_36_229" maskUnits="userSpaceOnUse" x="0" y="0" width="222" height="368" fill="black">
<rect fill="white" width="222" height="368"/>
<path fill-rule="evenodd" clip-rule="evenodd" d="M39.7792 160C-4.48486 143.102 15.2936 78.9709 34.0645 97.0262C40.4109 103.13 46.1562 108.526 51.6536 113.203C50.3446 104.806 48.9919 96.7674 47.7056 89.1235C43.4154 63.6284 39.8648 42.5279 41.1435 27.2116C68.5773 -1.9354 146.146 -2.86869 173.578 27.2117C176.331 45.1127 166.956 98.7808 161.231 116.812H162.725H181V252.789C183.079 253.426 185.189 253.79 187.345 253.79C213.214 253.79 205.01 233.799 187.345 242.545C194.917 224.428 217 230.675 217 248.792C217 266.534 200.878 276.642 181 279.861V330.065C181.762 330.022 182.549 330 183.362 330C206.31 330 214.292 351.672 209.802 363H122C122 363 122.014 357.891 123.291 352.812H99.7089C100.986 357.891 101 363 101 363H13.1981C8.70827 351.672 16.6903 330 39.6384 330C40.1005 330 40.5543 330.007 41 330.021V279.861C21.1223 276.642 5 266.534 5 248.792C5 230.675 27.0833 224.428 34.6548 242.545C16.9896 233.799 8.78618 253.79 34.6552 253.79C36.8109 253.79 38.9206 253.426 41 252.789V143.87V116.812H56.0334C55.4312 116.333 54.8272 115.845 54.2207 115.348H39.7792V160ZM163.896 115.861C170.338 110.548 176.396 104.238 182.319 97.026C206.155 68.0024 215.892 157.184 182.319 160V115.861H163.896Z"/>
</mask>
<path d="M34.0645 97.0262L30.5983 100.63L30.5984 100.63L34.0645 97.0262ZM39.7792 160L37.996 164.671C39.5329 165.258 41.2601 165.051 42.615 164.118C43.97 163.185 44.7792 161.645 44.7792 160H39.7792ZM51.6536 113.203L48.4139 117.011C50.0058 118.365 52.272 118.586 54.0957 117.566C55.9194 116.545 56.9158 114.497 56.5939 112.432L51.6536 113.203ZM47.7056 89.1235L42.7749 89.9532L42.7749 89.9532L47.7056 89.1235ZM41.1435 27.2116L37.5026 23.7847C36.7279 24.6078 36.2549 25.6692 36.1609 26.7956L41.1435 27.2116ZM173.578 27.2117L178.52 26.4518C178.371 25.4781 177.937 24.5703 177.273 23.8425L173.578 27.2117ZM161.231 116.812L156.465 115.299C155.982 116.819 156.254 118.478 157.195 119.765C158.137 121.052 159.636 121.812 161.231 121.812V116.812ZM181 116.812H186C186 114.051 183.761 111.812 181 111.812V116.812ZM181 252.789H176C176 254.986 177.434 256.926 179.535 257.57L181 252.789ZM187.345 242.545L182.732 240.617C181.927 242.542 182.403 244.764 183.924 246.192C185.446 247.619 187.694 247.952 189.564 247.026L187.345 242.545ZM181 279.861L180.201 274.926C177.779 275.318 176 277.409 176 279.861H181ZM181 330.065H176C176 331.44 176.566 332.754 177.565 333.699C178.564 334.643 179.908 335.134 181.281 335.057L181 330.065ZM209.802 363V368C211.852 368 213.695 366.748 214.45 364.842L209.802 363ZM122 363L117 362.986C116.996 364.314 117.521 365.59 118.46 366.531C119.398 367.471 120.671 368 122 368V363ZM123.291 352.812L128.14 354.031C128.516 352.537 128.182 350.953 127.234 349.738C126.287 348.523 124.832 347.812 123.291 347.812V352.812ZM99.7089 352.812V347.812C98.168 347.812 96.7133 348.523 95.7658 349.738C94.8184 350.953 94.4841 352.537 94.8598 354.031L99.7089 352.812ZM101 363V368C102.329 368 103.602 367.471 104.54 366.531C105.479 365.59 106.004 364.314 106 362.986L101 363ZM13.1981 363L8.54982 364.842C9.30525 366.748 11.1478 368 13.1981 368L13.1981 363ZM41 330.021L40.8419 335.019C42.1947 335.062 43.5071 334.554 44.4792 333.612C45.4513 332.67 46 331.375 46 330.021H41ZM41 279.861H46C46 277.409 44.2207 275.318 41.7995 274.926L41 279.861ZM34.6548 242.545L32.4363 247.026C34.306 247.952 36.554 247.619 38.0756 246.192C39.5973 244.764 40.0726 242.542 39.2681 240.617L34.6548 242.545ZM41 252.789L42.4648 257.57C44.5656 256.926 46 254.986 46 252.789H41ZM41 116.812V111.812C38.2386 111.812 36 114.051 36 116.812H41ZM56.0334 116.812V121.812C58.1592 121.812 60.0526 120.468 60.7536 118.461C61.4547 116.454 60.8102 114.224 59.1468 112.9L56.0334 116.812ZM54.2207 115.348L57.3908 111.481C56.4969 110.748 55.3767 110.348 54.2207 110.348V115.348ZM39.7792 115.348V110.348C37.0178 110.348 34.7792 112.586 34.7792 115.348H39.7792ZM182.319 97.026L178.455 93.8527L178.455 93.8527L182.319 97.026ZM163.896 115.861L160.714 112.004C159.087 113.346 158.477 115.565 159.19 117.551C159.903 119.537 161.786 120.861 163.896 120.861V115.861ZM182.319 160H177.319C177.319 161.399 177.905 162.734 178.935 163.68C179.964 164.627 181.343 165.099 182.737 164.982L182.319 160ZM182.319 115.861H187.319C187.319 113.1 185.081 110.861 182.319 110.861V115.861ZM37.5307 93.4227C34.4866 90.4946 30.8918 88.7549 26.975 88.8569C23.1112 88.9576 19.8303 90.8284 17.3089 93.3067C12.3922 98.1395 9.26541 106.258 8.31408 114.856C6.38563 132.285 13.1267 155.178 37.996 164.671L41.5624 155.329C22.1677 147.925 16.6659 130.303 18.2534 115.956C19.0601 108.665 21.631 103.08 24.3188 100.438C25.5997 99.1794 26.5977 98.8702 27.2355 98.8535C27.8203 98.8383 28.9497 99.044 30.5983 100.63L37.5307 93.4227ZM54.8932 109.394C49.5185 104.822 43.8645 99.5147 37.5306 93.4226L30.5984 100.63C36.9572 106.746 42.794 112.231 48.4139 117.011L54.8932 109.394ZM42.7749 89.9532C44.0618 97.6007 45.4096 105.611 46.7133 113.973L56.5939 112.432C55.2796 104.002 53.9219 95.934 52.6363 88.2938L42.7749 89.9532ZM36.1609 26.7956C34.817 42.8912 38.5321 64.7396 42.7749 89.9532L52.6363 88.2938C48.2987 62.5172 44.9125 42.1646 46.1262 27.6276L36.1609 26.7956ZM177.273 23.8425C162.151 7.26099 134.151 -0.117724 107.339 0.00142771C80.5175 0.120622 52.5938 7.7511 37.5026 23.7847L44.7845 30.6385C57.1271 17.5251 81.7044 10.1154 107.384 10.0013C133.072 9.88717 157.573 17.082 169.884 30.5809L177.273 23.8425ZM165.996 118.325C168.977 108.936 172.799 90.7074 175.527 72.7126C176.897 63.6757 178.008 54.5928 178.602 46.5983C179.187 38.7099 179.3 31.5216 178.52 26.4518L168.637 27.9716C169.233 31.8523 169.206 38.0854 168.629 45.8579C168.06 53.5243 166.985 62.3419 165.64 71.2135C162.938 89.0359 159.209 106.657 156.465 115.299L165.996 118.325ZM162.725 111.812H161.231V121.812H162.725V111.812ZM181 111.812H162.725V121.812H181V111.812ZM186 252.789V116.812H176V252.789H186ZM187.345 248.79C185.759 248.79 184.145 248.524 182.465 248.009L179.535 257.57C182.014 258.329 184.619 258.79 187.345 258.79V248.79ZM189.564 247.026C193.19 245.231 195.838 245.151 197.333 245.489C198.932 245.851 198.928 246.513 198.834 246.158C198.816 246.087 198.808 246.004 198.816 245.924C198.823 245.844 198.842 245.808 198.835 245.822C198.822 245.85 198.654 246.183 197.959 246.649C196.506 247.623 193.286 248.79 187.345 248.79V258.79C194.338 258.79 199.794 257.458 203.526 254.957C207.371 252.38 209.703 248.174 208.506 243.618C207.388 239.358 203.637 236.662 199.538 235.735C195.335 234.785 190.333 235.486 185.127 238.064L189.564 247.026ZM222 248.792C222 237.528 214.997 229.348 206.186 227.221C197.14 225.036 187.387 229.478 182.732 240.617L191.959 244.473C194.875 237.495 199.949 236.002 203.838 236.941C207.962 237.937 212 241.94 212 248.792H222ZM181.799 284.797C192.261 283.103 202.157 279.54 209.554 273.696C217.091 267.741 222 259.406 222 248.792H212C212 255.92 208.848 261.51 203.355 265.849C197.721 270.3 189.617 273.401 180.201 274.926L181.799 284.797ZM186 330.065V279.861H176V330.065H186ZM183.362 325C182.458 325 181.578 325.025 180.719 325.073L181.281 335.057C181.947 335.02 182.64 335 183.362 335V325ZM214.45 364.842C217.384 357.44 216.097 347.521 211.102 339.588C205.926 331.367 196.631 325 183.362 325V335C193.04 335 199.21 339.469 202.64 344.916C206.25 350.651 206.71 357.231 205.154 361.158L214.45 364.842ZM122 368H209.802V358H122V368ZM118.442 351.593C117.716 354.483 117.361 357.317 117.185 359.385C117.096 360.431 117.05 361.308 117.026 361.932C117.014 362.244 117.007 362.495 117.004 362.674C117.002 362.764 117.001 362.835 117.001 362.888C117 362.914 117 362.935 117 362.952C117 362.96 117 362.967 117 362.973C117 362.975 117 362.978 117 362.98C117 362.981 117 362.982 117 362.983C117 362.984 117 362.984 117 362.985C117 362.985 117 362.986 122 363C127 363.014 127 363.015 127 363.015C127 363.015 127 363.016 127 363.016C127 363.017 127 363.017 127 363.018C127 363.019 127 363.02 127 363.02C127 363.021 127 363.02 127 363.019C127 363.016 127 363.008 127 362.995C127 362.97 127.001 362.927 127.002 362.867C127.005 362.747 127.009 362.559 127.019 362.313C127.037 361.82 127.075 361.102 127.149 360.236C127.298 358.48 127.59 356.22 128.14 354.031L118.442 351.593ZM99.7089 357.812H123.291V347.812H99.7089V357.812ZM101 363C106 362.986 106 362.985 106 362.985C106 362.984 106 362.984 106 362.983C106 362.982 106 362.981 106 362.98C106 362.978 106 362.975 106 362.973C106 362.967 106 362.96 106 362.952C106 362.935 106 362.914 105.999 362.888C105.999 362.835 105.998 362.764 105.996 362.674C105.993 362.495 105.986 362.244 105.974 361.932C105.95 361.308 105.904 360.431 105.815 359.385C105.639 357.317 105.284 354.483 104.558 351.593L94.8598 354.031C95.4101 356.22 95.7015 358.48 95.8513 360.236C95.9253 361.102 95.9627 361.82 95.9814 362.313C95.9908 362.559 95.9955 362.747 95.9978 362.867C95.999 362.927 95.9995 362.97 95.9998 362.995C96 363.008 96 363.016 96 363.019C96 363.02 96 363.021 96 363.02C96 363.02 96 363.019 96 363.018C96 363.017 96 363.017 96 363.016C96 363.016 96 363.015 96 363.015C96 363.015 96 363.014 101 363ZM13.1981 368H101V358H13.1981V368ZM39.6384 325C26.3687 325 17.0739 331.367 11.8978 339.588C6.90293 347.521 5.6162 357.44 8.54982 364.842L17.8463 361.158C16.2901 357.231 16.7495 350.651 20.3602 344.916C23.7897 339.469 29.96 335 39.6384 335V325ZM41.1581 325.024C40.6587 325.008 40.1522 325 39.6384 325V335C40.0487 335 40.4498 335.006 40.8419 335.019L41.1581 325.024ZM36 279.861V330.021H46V279.861H36ZM0 248.792C0 259.406 4.90884 267.741 12.4463 273.696C19.8434 279.54 29.7391 283.103 40.2005 284.797L41.7995 274.926C32.3832 273.401 24.2788 270.3 18.6454 265.849C13.1523 261.51 10 255.92 10 248.792H0ZM39.2681 240.617C34.613 229.478 24.8596 225.036 15.8144 227.221C7.00342 229.348 0 237.528 0 248.792H10C10 241.94 14.0382 237.937 18.1618 236.941C22.0511 236.002 27.1251 237.495 30.0415 244.473L39.2681 240.617ZM34.6552 248.79C28.714 248.79 25.4941 247.623 24.041 246.649C23.3455 246.183 23.1779 245.85 23.165 245.822C23.1584 245.808 23.1769 245.844 23.1844 245.924C23.1919 246.004 23.1843 246.087 23.1657 246.158C23.0723 246.513 23.068 245.851 24.6673 245.489C26.1618 245.151 28.8101 245.231 32.4363 247.026L36.8733 238.064C31.6669 235.486 26.6653 234.785 22.4618 235.735C18.363 236.662 14.6124 239.358 13.4937 243.618C12.297 248.174 14.6288 252.38 18.474 254.957C22.2064 257.458 27.6619 258.79 34.6552 258.79V248.79ZM39.5352 248.009C37.8547 248.524 36.241 248.79 34.6552 248.79V258.79C37.3807 258.79 39.9864 258.329 42.4648 257.57L39.5352 248.009ZM36 143.87V252.789H46V143.87H36ZM36 116.812V143.87H46V116.812H36ZM56.0334 111.812H41V121.812H56.0334V111.812ZM51.0507 119.214C51.675 119.726 52.2979 120.23 52.92 120.725L59.1468 112.9C58.5645 112.437 57.9794 111.964 57.3908 111.481L51.0507 119.214ZM39.7792 120.348H54.2207V110.348H39.7792V120.348ZM44.7792 160V115.348H34.7792V160H44.7792ZM178.455 93.8527C172.681 100.883 166.848 106.945 160.714 112.004L167.077 119.718C173.828 114.151 180.111 107.593 186.183 100.199L178.455 93.8527ZM182.737 164.982C193.769 164.057 200.659 155.976 204.455 146.802C208.258 137.61 209.48 126.299 208.837 116.254C208.513 111.196 207.709 106.311 206.44 102.032C205.191 97.824 203.395 93.8641 200.877 90.954C198.282 87.9537 194.529 85.7023 189.874 86.328C185.561 86.9077 181.769 89.8181 178.455 93.8527L186.183 100.199C188.829 96.978 190.555 96.3264 191.206 96.2389C191.514 96.1974 192.17 96.1736 193.315 97.4966C194.537 98.9099 195.812 101.369 196.852 104.876C197.872 108.313 198.573 112.441 198.858 116.892C199.432 125.867 198.282 135.565 195.214 142.979C192.138 150.412 187.655 154.535 181.901 155.017L182.737 164.982ZM177.319 115.861V160H187.319V115.861H177.319ZM163.896 120.861H182.319V110.861H163.896V120.861Z" fill="#F0E9E0" mask="url(#path-3-outside-1_36_229)"/>
<path fill-rule="evenodd" clip-rule="evenodd" d="M34.7792 157.758C-2.90703 138.112 16.0431 79.6918 34.0645 97.0262C38.1878 100.992 42.0575 104.659 45.7702 108.024C46.6432 108.815 47.5076 109.59 48.3645 110.348C48.9247 110.843 49.4817 111.331 50.0358 111.812C50.5777 112.283 51.1168 112.746 51.6536 113.203C51.5812 112.738 51.5086 112.275 51.4359 111.812C51.359 111.323 51.2819 110.835 51.2048 110.348C50.9459 108.714 50.6858 107.094 50.4253 105.488C49.5112 99.8537 48.5926 94.3947 47.7056 89.1235C43.4154 63.6284 39.8648 42.5279 41.1435 27.2116C68.5773 -1.93541 146.146 -2.8687 173.578 27.2117C176.038 43.2034 168.818 87.7395 163.168 109.913C163.002 110.566 162.837 111.199 162.673 111.812C162.495 112.48 162.319 113.122 162.146 113.739C161.832 114.852 161.527 115.88 161.231 116.812H181V252.789C183.079 253.426 185.189 253.79 187.345 253.79C209.472 253.79 206.671 239.164 194.342 240.406C192.257 240.616 189.9 241.28 187.345 242.545C188.544 239.675 190.108 237.417 191.89 235.72C201.358 226.705 217 233.545 217 248.792C217 266.534 200.878 276.642 181 279.861V330.065C181.762 330.022 182.549 330 183.362 330C184.093 330 184.81 330.022 185.512 330.065C206.806 331.372 214.149 352.033 209.802 363H122C122 363 122.006 360.873 122.353 358C122.361 357.938 122.368 357.875 122.376 357.812C122.567 356.278 122.856 354.543 123.291 352.812H99.7089C100.144 354.543 100.433 356.278 100.624 357.812C100.632 357.875 100.639 357.938 100.647 358C100.994 360.873 101 363 101 363H13.1981C8.78985 351.877 16.4044 330.784 38.4024 330.021C38.8095 330.007 39.2215 330 39.6384 330C40.1005 330 40.5543 330.007 41 330.021V279.861C21.1223 276.642 5 266.534 5 248.792C5 233.545 20.6416 226.705 30.1101 235.72C31.8922 237.417 33.4555 239.675 34.6548 242.545C32.0997 241.28 29.7425 240.616 27.6578 240.406C15.3294 239.164 12.5279 253.79 34.6552 253.79C36.8109 253.79 38.9206 253.426 41 252.789V116.812H56.0334C55.8577 116.672 55.6818 116.532 55.5058 116.391C55.0785 116.047 54.6502 115.7 54.2207 115.348H39.7792V160C38.4634 159.498 37.2043 158.954 36 158.371C35.5866 158.171 35.1797 157.967 34.7792 157.758ZM36 163.864C12.7651 153.932 6.43826 131.809 8.31408 114.856C9.26541 106.258 12.3922 98.1395 17.3089 93.3067C19.8303 90.8284 23.1112 88.9576 26.975 88.8569C30.8918 88.7549 34.4866 90.4946 37.5307 93.4227C39.9306 95.731 42.2329 97.9266 44.4594 100.012C43.8922 96.5929 43.3279 93.2396 42.7749 89.9532L42.656 89.2468C38.4631 64.3315 34.8296 42.7407 36.1609 26.7956C36.2549 25.6692 36.7279 24.6078 37.5026 23.7847C52.5938 7.75109 80.5175 0.120614 107.339 0.00141925C134.151 -0.117732 162.151 7.26098 177.273 23.8425C177.937 24.5703 178.371 25.4781 178.52 26.4517C179.3 31.5216 179.187 38.7099 178.602 46.5982C178.008 54.5928 176.897 63.6756 175.527 72.7126C173.88 83.5793 171.833 94.5312 169.814 103.57C172.728 100.571 175.599 97.3304 178.455 93.8527C181.769 89.8181 185.561 86.9077 189.874 86.328C194.529 85.7023 198.282 87.9537 200.877 90.954C203.395 93.864 205.191 97.824 206.44 102.032C207.709 106.311 208.513 111.195 208.837 116.254C209.48 126.299 208.258 137.61 204.455 146.802C201.048 155.035 195.149 162.389 186 164.479V234.856C191.17 227.996 198.907 225.463 206.186 227.221C214.997 229.348 222 237.528 222 248.792C222 259.406 217.091 267.741 209.554 273.696C203.155 278.751 194.887 282.099 186 284.008V325.086C197.87 325.87 206.276 331.923 211.102 339.588C216.097 347.521 217.384 357.44 214.45 364.842C213.695 366.748 211.852 368 209.802 368H122C120.671 368 119.398 367.471 118.46 366.531C117.521 365.59 116.996 364.314 117 362.986L122 363C117 362.986 117 362.985 117 362.985L117 362.983L117 362.98L117 362.973L117 362.952L117.001 362.888C117.001 362.865 117.001 362.838 117.002 362.808C117.002 362.769 117.003 362.724 117.004 362.674C117.007 362.495 117.014 362.244 117.026 361.932C117.05 361.308 117.096 360.431 117.185 359.385C117.226 358.9 117.277 358.373 117.341 357.812H105.659C105.723 358.373 105.774 358.9 105.815 359.385C105.904 360.431 105.95 361.308 105.974 361.932C105.986 362.244 105.993 362.495 105.996 362.674C105.998 362.764 105.999 362.835 105.999 362.888L106 362.952L106 362.973L106 362.98L106 362.983L106 362.985C106 362.985 106 362.986 101 363L106 362.986C106.004 364.314 105.479 365.59 104.54 366.531C103.602 367.471 102.329 368 101 368H13.1981C11.1478 368 9.30525 366.748 8.54982 364.842C5.6162 357.44 6.90293 347.521 11.8978 339.588C16.5871 332.14 24.6568 326.214 36 325.165V284.008C27.1132 282.099 18.845 278.751 12.4463 273.696C4.90884 267.741 0 259.406 0 248.792C0 237.528 7.00342 229.348 15.8144 227.221C23.0928 225.463 30.8298 227.996 36 234.856V163.864ZM36 247.361V248.727C35.549 248.769 35.101 248.79 34.6552 248.79C28.714 248.79 25.4941 247.623 24.041 246.649C23.6773 246.406 23.4579 246.198 23.3296 246.052C23.5336 245.886 23.9301 245.656 24.6673 245.489C26.1618 245.151 28.8101 245.231 32.4363 247.026C33.5673 247.586 34.8367 247.685 36 247.361ZM186 247.361V248.727C186.451 248.769 186.899 248.79 187.345 248.79C193.286 248.79 196.506 247.623 197.959 246.649C198.323 246.406 198.542 246.198 198.67 246.052C198.466 245.886 198.07 245.656 197.333 245.489C195.838 245.151 193.19 245.231 189.564 247.026C188.433 247.586 187.163 247.685 186 247.361ZM187.319 158.846C214.815 148.02 204.886 69.5481 182.319 97.026C178.157 102.094 173.928 106.717 169.546 110.861C169.207 111.181 168.868 111.498 168.528 111.812C168.228 112.089 167.928 112.363 167.627 112.635C166.397 113.748 165.154 114.824 163.896 115.861H182.319V160C183.61 159.892 184.836 159.656 186 159.304C186.449 159.168 186.889 159.015 187.319 158.846Z" fill="#F0E9E0"/>
<path d="M41 352.812V143.87V116.812H181V352.812H41Z" fill="#DF8436"/>
<path d="M63 321.812V278.812C63 278.812 83 286.312 109.5 286.312C136 286.312 156 278.812 156 278.812V321.812H63Z" fill="white" fill-opacity="0.25"/>
<path d="M63.5 258.812V180.312L110 174.312L158.5 180.312V258.812C158.5 258.812 144 268.312 110.5 268.312C80 268.312 63.5 258.812 63.5 258.812Z" fill="white" fill-opacity="0.25"/>
<path d="M101 363H13.1981C8.70827 351.672 16.6903 330 39.6384 330C62.5865 330 65.129 347.731 73.5619 347.731C81.9949 347.731 81.1012 342.806 91.0223 342.806C100.943 342.806 101 363 101 363Z" fill="#201B21"/>
<path d="M122 363H209.802C214.292 351.672 206.31 330 183.362 330C160.413 330 157.871 347.731 149.438 347.731C141.005 347.731 141.899 342.806 131.978 342.806C122.057 342.806 122 363 122 363Z" fill="#201B21"/>
<path d="M105 182.5C105 198.24 92.2401 211 76.5 211C60.7599 211 48 198.24 48 182.5C48 166.76 60.7599 154 76.5 154C92.2401 154 105 166.76 105 182.5Z" fill="#EACCB1"/>
<path fill-rule="evenodd" clip-rule="evenodd" d="M76.5 206C89.4787 206 100 195.479 100 182.5C100 169.521 89.4787 159 76.5 159C63.5213 159 53 169.521 53 182.5C53 195.479 63.5213 206 76.5 206ZM76.5 211C92.2401 211 105 198.24 105 182.5C105 166.76 92.2401 154 76.5 154C60.7599 154 48 166.76 48 182.5C48 198.24 60.7599 211 76.5 211Z" fill="#F0E9E0"/>
<path d="M175 182.312C175 198.052 162.24 210.812 146.5 210.812C130.76 210.812 118 198.052 118 182.312C118 166.572 130.76 153.812 146.5 153.812C162.24 153.812 175 166.572 175 182.312Z" fill="#EACCB1"/>
<path fill-rule="evenodd" clip-rule="evenodd" d="M146.5 205.812C159.479 205.812 170 195.291 170 182.312C170 169.334 159.479 158.812 146.5 158.812C133.521 158.812 123 169.334 123 182.312C123 195.291 133.521 205.812 146.5 205.812ZM146.5 210.812C162.24 210.812 175 198.052 175 182.312C175 166.572 162.24 153.812 146.5 153.812C130.76 153.812 118 166.572 118 182.312C118 198.052 130.76 210.812 146.5 210.812Z" fill="#F0E9E0"/>
<path fill-rule="evenodd" clip-rule="evenodd" d="M102.896 178.941C102.897 178.94 102.898 178.939 101 177.312C99.1018 175.685 99.1027 175.684 99.1036 175.683L99.1054 175.681L99.1092 175.677L99.1178 175.667L99.1386 175.643C99.154 175.626 99.1727 175.605 99.1945 175.581C99.2383 175.534 99.295 175.474 99.3647 175.403C99.5043 175.262 99.6967 175.079 99.9433 174.867C100.436 174.445 101.149 173.909 102.091 173.381C103.988 172.319 106.78 171.312 110.5 171.312C114.213 171.312 117.106 172.315 119.088 173.343C120.077 173.855 120.839 174.374 121.369 174.778C121.634 174.981 121.842 175.156 121.991 175.288C122.066 175.354 122.127 175.41 122.173 175.453C122.196 175.475 122.215 175.493 122.231 175.509L122.252 175.529L122.261 175.537L122.264 175.541L122.266 175.543C122.267 175.544 122.268 175.544 120.5 177.312C118.732 179.08 118.733 179.081 118.734 179.082L118.735 179.083L118.738 179.086L118.743 179.09L118.748 179.096C118.75 179.098 118.749 179.097 118.745 179.093C118.737 179.085 118.716 179.066 118.682 179.036C118.615 178.977 118.499 178.878 118.334 178.752C118.004 178.5 117.486 178.144 116.787 177.782C115.394 177.06 113.287 176.312 110.5 176.312C107.72 176.312 105.762 177.056 104.534 177.744C103.914 178.091 103.47 178.43 103.197 178.664C103.061 178.78 102.968 178.87 102.918 178.921C102.893 178.946 102.879 178.961 102.876 178.965C102.875 178.965 102.875 178.966 102.875 178.966C102.875 178.966 102.876 178.964 102.879 178.961L102.887 178.953L102.892 178.947L102.895 178.943L102.896 178.941Z" fill="#F0E9E0"/>
<path d="M89 184.812C89 191.44 83.6274 196.812 77 196.812C70.3726 196.812 65 191.44 65 184.812C65 178.185 70.3726 172.812 77 172.812C83.6274 172.812 89 178.185 89 184.812Z" fill="#201B21"/>
<path d="M159 182.812C159 189.44 153.627 194.812 147 194.812C140.373 194.812 135 189.44 135 182.812C135 176.185 140.373 170.812 147 170.812C153.627 170.812 159 176.185 159 182.812Z" fill="#201B21"/>
<path fill-rule="evenodd" clip-rule="evenodd" d="M171.81 73.8561C169.403 89.3641 166.237 104.748 163.582 114.171C169.694 109.046 175.479 102.991 181.16 96.074C184.239 92.3241 187.308 90.2043 190.34 89.7968C193.473 89.3756 196.142 90.8307 198.23 93.2439C200.295 95.6301 201.908 99.0647 203.084 103.028C204.266 107.012 205.034 111.631 205.344 116.477C205.963 126.148 204.766 136.894 201.22 145.464C197.676 154.028 191.5 158.289 182.5 161.5L181 162L180.819 117.361H164.432C163.502 118.12 162.564 118.859 161.616 119.577C146.68 130.904 129.575 137.093 107.587 137.093C84.9088 137.093 70.0564 130.182 53.6855 116.848H41V162L39.2439 161.401C16.2907 152.639 9.98342 131.591 11.7925 115.241C12.6932 107.101 15.6254 99.8688 19.762 95.8028C21.8492 93.7513 24.3312 92.427 27.0659 92.3557C29.8165 92.2841 32.5483 93.4869 35.104 95.9452C40.2602 100.904 45.0035 105.381 49.5313 109.377C48.431 102.478 47.3084 95.8055 46.231 89.402C44.7248 80.4498 43.3072 72.0236 42.1628 64.2403C40.0355 49.772 38.8018 37.2267 39.6484 27.0868L39.692 26.5649L40.0509 26.1836C54.1801 11.172 80.9326 3.61881 107.354 3.50139C133.773 3.38399 160.548 10.6983 174.686 26.2009L174.992 26.5358L175.061 26.9837C175.798 31.7795 175.688 38.9157 175.055 47.0745C174.42 55.2669 173.247 64.6034 171.81 73.8561Z" fill="#201B21"/>
<path d="M58.7422 101.126C55.7554 90.3066 53.9354 59.8249 55.682 71.7021C61.7471 112.947 85.2461 122.947 109.746 124.947C137.493 127.212 68.079 134.946 58.7422 101.126Z" fill="#F0E9E0"/>
<path d="M34.6552 253.79C58.6331 253.79 76.9309 208.812 111 242.545C145.069 208.812 163.367 253.79 187.345 253.79C213.214 253.79 205.01 233.799 187.345 242.545C194.917 224.428 217 230.675 217 248.792C217 290.024 129.929 290.024 111 258.163C92.0714 290.024 5 290.024 5 248.792C5 230.675 27.0833 224.428 34.6548 242.545C16.9896 233.799 8.78618 253.79 34.6552 253.79Z" fill="#201B21"/>
</svg>
